<?xml version="1.0" standalone="no"?>
<!DOCTYPE svg PUBLIC "-//W3C//DTD SVG 20010904//EN"
 "http://www.w3.org/TR/2001/REC-SVG-20010904/DTD/svg10.dtd">
<svg version="1.0" xmlns="http://www.w3.org/2000/svg"
 width="1280.000000pt" height="360.000000pt" viewBox="0 0 1280.000000 360.000000"
 preserveAspectRatio="xMidYMid meet">
<metadata>
Created by potrace 1.15, written by Peter Selinger 2001-2017
</metadata>
<g transform="translate(0.000000,360.000000) scale(0.100000,-0.100000)"
fill="#000000" stroke="none">
<path d="M30 3581 c0 -11 3 -27 6 -36 8 -19 55 -45 84 -45 29 0 70 44 70 75 0
25 -1 25 -80 25 -72 0 -80 -2 -80 -19z"/>
<path d="M382 3558 c80 -98 213 -157 329 -144 113 11 218 71 279 157 l21 29
-332 0 -332 0 35 -42z"/>
<path d="M1209 3581 c21 -38 142 -139 204 -169 88 -44 167 -62 267 -62 160 0
290 52 408 164 39 38 72 72 72 77 0 5 -213 9 -480 9 -468 0 -480 0 -471 -19z"/>
<path d="M2665 3568 c127 -80 296 -107 444 -69 71 17 211 82 211 96 0 3 -159
5 -352 5 l-353 0 50 -32z"/>
<path d="M3514 3553 c9 -68 61 -169 116 -223 60 -60 120 -95 200 -116 216 -55
445 72 510 283 35 115 82 103 -406 103 l-427 0 7 -47z"/>
<path d="M4410 3591 c0 -18 50 -69 84 -85 66 -31 137 -18 194 37 56 54 49 57
-123 57 -88 0 -155 -4 -155 -9z"/>
<path d="M4911 3586 c-21 -25 -24 -81 -7 -114 57 -111 232 -56 213 65 -10 57
-20 63 -112 63 -59 0 -86 -4 -94 -14z"/>
<path d="M5285 3583 c-16 -40 -17 -198 -1 -265 72 -305 378 -507 676 -444 162
34 306 135 391 275 59 97 74 159 74 296 0 66 -3 128 -7 138 -7 16 -43 17 -567
17 -523 0 -559 -1 -566 -17z"/>
<path d="M6580 3595 c0 -16 31 -63 45 -69 47 -17 115 15 115 55 0 17 -8 19
-80 19 -44 0 -80 -2 -80 -5z"/>
<path d="M6790 3589 c0 -32 72 -142 135 -205 268 -271 716 -212 912 119 17 29
34 62 38 75 l6 22 -545 0 c-393 0 -546 -3 -546 -11z"/>
<path d="M8169 3563 c-57 -92 -24 -235 69 -294 93 -59 194 -48 272 31 75 74
89 171 38 262 l-22 38 -167 0 -167 0 -23 -37z"/>
<path d="M8833 3555 c62 -57 172 -111 267 -131 170 -36 361 15 486 130 l49 45
-425 0 -425 0 48 -44z"/>
<path d="M9641 3553 c-49 -58 -104 -168 -121 -243 -7 -30 -13 -93 -12 -140 2
-361 347 -628 701 -545 207 49 377 219 426 427 41 174 -8 371 -123 500 l-44
48 -393 0 -393 0 -41 -47z"/>
<path d="M10670 3588 c0 -46 109 -128 170 -128 68 0 141 43 170 101 l20 39
-180 0 c-132 0 -180 -3 -180 -12z"/>
<path d="M11062 3550 c-190 -187 -137 -508 105 -627 53 -25 68 -28 163 -28 93
0 112 3 162 27 80 37 152 107 191 187 30 61 32 73 32 166 0 92 -3 105 -32 166
-20 40 -52 84 -82 112 l-50 47 -219 0 -219 0 -51 -50z"/>
<path d="M11949 3548 c-20 -45 -24 -69 -24 -158 0 -99 2 -110 32 -171 39 -80
111 -150 191 -187 50 -24 69 -27 157 -27 88 0 107 3 158 27 197 93 283 317
196 517 l-21 51 -333 0 -333 0 -23 -52z"/>
<path d="M2375 3546 c-118 -38 -207 -116 -258 -224 -30 -63 -32 -74 -32 -177
0 -98 3 -116 27 -167 54 -115 141 -192 257 -229 351 -109 657 254 494 587 -36
75 -134 165 -210 195 -71 28 -216 36 -278 15z"/>
<path d="M7893 3512 c-51 -40 -52 -114 -1 -157 83 -70 204 27 154 123 -9 17
-25 36 -35 42 -30 16 -93 12 -118 -8z"/>
<path d="M182 3484 c-28 -20 -28 -58 0 -78 12 -9 26 -16 30 -16 14 0 48 39 48
55 0 16 -34 55 -48 55 -4 0 -18 -7 -30 -16z"/>
<path d="M8630 3440 c-49 -49 -3 -139 65 -126 61 12 83 71 44 120 -26 33 -79
36 -109 6z"/>
<path d="M4635 3427 c-117 -39 -199 -110 -247 -214 -93 -198 -5 -432 198 -525
41 -19 66 -23 154 -23 94 0 111 3 165 28 116 54 204 170 224 296 27 166 -63
337 -217 413 -55 27 -77 32 -151 35 -52 2 -102 -2 -126 -10z"/>
<path d="M3175 3405 c-16 -15 -25 -36 -25 -55 0 -19 9 -40 25 -55 15 -16 36
-25 55 -25 19 0 40 9 55 25 16 15 25 36 25 55 0 19 -9 40 -25 55 -15 16 -36
25 -55 25 -19 0 -40 -9 -55 -25z"/>
<path d="M10790 3410 c-24 -24 -24 -29 -4 -58 19 -28 58 -28 78 -1 16 23 12
47 -12 67 -22 17 -39 15 -62 -8z"/>
<path d="M1182 3400 c-206 -42 -349 -247 -313 -446 24 -127 103 -234 216 -290
55 -27 69 -29 170 -29 102 0 114 2 168 29 74 38 146 110 182 183 37 75 47 204
21 285 -59 185 -260 305 -444 268z"/>
<path d="M11772 3394 c-30 -21 -29 -59 3 -80 23 -15 27 -15 50 0 32 21 33 59
3 80 -12 9 -25 16 -28 16 -3 0 -16 -7 -28 -16z"/>
<path d="M6611 3322 c-66 -35 -90 -125 -51 -189 28 -46 72 -66 133 -60 68 6
108 46 114 114 12 116 -95 189 -196 135z"/>
<path d="M6862 3258 c-28 -28 -3 -88 37 -88 10 0 26 9 36 20 27 30 10 74 -30
78 -17 2 -36 -3 -43 -10z"/>
<path d="M7635 3246 c-5 -3 -22 -7 -37 -10 -35 -8 -94 -59 -115 -100 -9 -17
-16 -55 -16 -86 0 -65 18 -105 67 -148 125 -110 326 -21 326 144 0 61 -43 139
-93 169 -39 22 -110 39 -132 31z"/>
<path d="M1795 3221 c-162 -73 -140 -301 33 -339 167 -38 285 157 175 289 -31
37 -95 69 -138 69 -16 0 -48 -9 -70 -19z"/>
<path d="M3237 3222 c-36 -39 -12 -86 40 -80 20 2 30 11 38 32 8 24 6 31 -14
47 -29 24 -43 24 -64 1z"/>
<path d="M240 3200 c-66 -22 -140 -96 -158 -157 -27 -92 -5 -196 54 -257 167
-171 445 -63 444 173 0 42 -7 80 -19 106 -26 58 -99 121 -162 139 -67 20 -91
20 -159 -4z"/>
<path d="M8651 3194 c-285 -76 -467 -361 -417 -651 54 -314 348 -523 660 -470
279 49 476 280 476 560 0 111 -18 186 -67 280 -70 132 -211 243 -359 282 -73
19 -221 19 -293 -1z"/>
<path d="M5180 3180 c-34 -34 -20 -80 27 -95 17 -4 29 1 48 19 30 30 31 36 4
70 -24 31 -52 33 -79 6z"/>
<path d="M8283 3188 c-67 -32 -39 -138 36 -138 34 0 71 39 71 75 0 24 -7 39
-26 54 -29 23 -48 25 -81 9z"/>
<path d="M601 3154 c-24 -31 -25 -35 -10 -68 22 -47 95 -52 118 -7 40 74 -56
141 -108 75z"/>
<path d="M3556 3165 c-199 -55 -369 -233 -411 -432 -42 -198 12 -380 155 -524
202 -205 497 -234 733 -72 189 128 283 367 236 595 -41 198 -217 381 -415 433
-71 18 -230 18 -298 0z"/>
<path d="M7254 3160 c-56 -23 -73 -112 -29 -155 36 -37 97 -35 136 4 73 74 -9
191 -107 151z"/>
<path d="M12662 3130 c-62 -58 -14 -153 73 -141 30 3 65 48 65 82 0 66 -89
104 -138 59z"/>
<path d="M10800 3090 c-45 -45 -9 -130 54 -130 34 0 76 41 76 75 0 61 -87 98
-130 55z"/>
<path d="M8019 3070 c-73 -22 -119 -87 -119 -167 0 -127 138 -205 252 -141 96
54 113 185 34 264 -45 45 -109 62 -167 44z"/>
<path d="M12470 2992 c-42 -34 -15 -112 39 -112 54 0 81 70 41 110 -25 25 -51
25 -80 2z"/>
<path d="M11874 2976 c-130 -57 -90 -256 52 -256 148 0 184 198 47 256 -40 17
-59 17 -99 0z"/>
<path d="M6365 2957 c-59 -33 -85 -78 -85 -147 0 -200 278 -233 330 -40 38
140 -118 259 -245 187z"/>
<path d="M659 2947 c-40 -27 -60 -78 -48 -121 36 -126 219 -103 219 28 0 48
-19 80 -60 101 -40 21 -72 19 -111 -8z"/>
<path d="M7040 2959 c-135 -14 -255 -75 -355 -181 -83 -88 -131 -185 -152
-306 -14 -83 -14 -101 0 -184 48 -285 285 -488 570 -488 170 0 298 51 413 165
117 117 174 252 174 415 0 150 -50 282 -146 389 -129 142 -307 209 -504 190z"/>
<path d="M10685 2913 c-72 -38 -105 -94 -105 -179 0 -114 81 -194 195 -194
115 0 195 80 195 195 0 116 -80 195 -196 195 -34 -1 -72 -8 -89 -17z"/>
<path d="M12149 2906 c-36 -21 -63 -79 -55 -120 13 -71 101 -115 164 -82 43
22 62 53 62 103 0 61 -39 103 -100 109 -28 3 -55 -1 -71 -10z"/>
<path d="M1662 2833 c-106 -52 -65 -223 53 -223 34 0 80 24 99 52 20 29 20 90
0 129 -15 30 -66 59 -101 59 -10 0 -33 -8 -51 -17z"/>
<path d="M2981 2794 c-26 -33 -26 -45 0 -78 28 -35 73 -33 102 5 50 68 -50
139 -102 73z"/>
<path d="M12470 2811 c-83 -27 -159 -102 -180 -176 -29 -105 9 -225 91 -285
56 -40 101 -53 172 -48 108 7 180 57 225 157 55 120 0 270 -123 333 -43 22
-144 33 -185 19z"/>
<path d="M11336 2795 c-213 -54 -386 -235 -431 -450 -27 -128 -11 -244 50
-374 46 -97 160 -212 256 -259 316 -153 681 -10 806 316 31 81 42 235 23 325
-28 139 -145 303 -264 372 -129 75 -307 103 -440 70z"/>
<path d="M1935 2782 c-64 -13 -88 -97 -40 -142 46 -43 127 -21 140 39 13 58
-42 115 -100 103z"/>
<path d="M2712 2749 c-120 -60 -135 -232 -27 -315 30 -22 50 -29 101 -32 54
-4 70 -1 106 21 105 61 124 214 36 293 -62 57 -142 69 -216 33z"/>
<path d="M4331 2734 c-12 -15 -21 -33 -21 -40 0 -26 23 -62 47 -73 34 -16 47
-14 77 10 33 26 36 79 6 109 -30 30 -83 27 -109 -6z"/>
<path d="M5415 2749 c-82 -13 -149 -60 -188 -133 -33 -64 -31 -176 5 -237 52
-89 122 -129 223 -129 72 0 120 17 170 62 58 51 80 101 80 188 0 58 -5 84 -22
116 -52 97 -159 150 -268 133z"/>
<path d="M5868 2734 c-57 -30 -76 -119 -36 -169 47 -60 125 -66 179 -13 24 24
29 38 29 77 0 53 -18 84 -60 106 -36 19 -77 19 -112 -1z"/>
<path d="M7725 2721 c-52 -22 -65 -92 -23 -131 50 -46 128 -9 128 62 0 53 -55
90 -105 69z"/>
<path d="M6098 2709 c-21 -12 -24 -59 -6 -77 18 -18 53 -15 71 6 22 24 21 45
-1 65 -21 19 -39 21 -64 6z"/>
<path d="M630 2699 c-240 -36 -445 -226 -506 -469 -23 -90 -15 -261 16 -349
64 -182 225 -334 412 -388 219 -63 446 -5 608 156 125 125 183 262 183 436 1
104 -19 189 -66 284 -44 91 -177 224 -267 268 -120 59 -256 81 -380 62z"/>
<path d="M11997 2692 c-22 -24 -21 -45 1 -65 37 -34 82 -15 82 33 0 49 -51 68
-83 32z"/>
<path d="M9495 2636 c-56 -25 -105 -101 -105 -163 1 -45 35 -108 75 -139 52
-39 133 -44 190 -12 99 58 121 182 48 269 -47 56 -139 76 -208 45z"/>
<path d="M7895 2598 c-52 -31 -62 -99 -20 -138 78 -73 193 34 123 114 -27 30
-74 41 -103 24z"/>
<path d="M6145 2582 c-101 -48 -132 -160 -70 -253 29 -45 79 -69 143 -69 122
0 200 132 145 247 -35 75 -141 111 -218 75z"/>
<path d="M9962 2570 c-12 -5 -29 -25 -39 -44 -14 -29 -14 -39 -3 -66 26 -63
108 -76 150 -23 55 70 -24 168 -108 133z"/>
<path d="M10437 2527 c-124 -77 -108 -251 29 -303 78 -30 161 2 203 76 19 34
22 52 19 96 -8 92 -63 145 -155 151 -48 3 -65 0 -96 -20z"/>
<path d="M2372 2528 c-18 -18 -15 -53 6 -71 24 -22 45 -21 65 1 34 37 15 82
-33 82 -14 0 -31 -5 -38 -12z"/>
<path d="M1965 2514 c-405 -62 -630 -486 -453 -853 44 -90 169 -216 258 -260
94 -45 162 -61 270 -61 174 0 291 49 415 174 129 129 182 265 172 441 -7 117
-36 206 -98 300 -77 115 -192 198 -328 239 -57 17 -185 27 -236 20z"/>
<path d="M78 2496 c-17 -8 -24 -21 -26 -48 -3 -30 1 -40 23 -54 32 -21 69 -8
87 30 22 49 -34 97 -84 72z"/>
<path d="M8055 2458 c-70 -39 -97 -104 -70 -174 29 -77 102 -109 180 -80 141
54 99 267 -52 266 -21 0 -47 -6 -58 -12z"/>
<path d="M10102 2410 c-130 -79 -74 -280 78 -280 85 0 150 65 150 150 0 116
-129 190 -228 130z"/>
<path d="M4730 2404 c-253 -68 -431 -283 -447 -543 -21 -344 250 -631 597
-631 324 0 590 263 593 585 2 177 -51 306 -177 430 -87 87 -163 131 -271 160
-74 19 -222 19 -295 -1z"/>
<path d="M12120 2370 c-32 -32 -24 -75 18 -91 58 -22 101 60 50 95 -30 21 -44
20 -68 -4z"/>
<path d="M9852 2363 c-25 -10 -34 -53 -17 -79 18 -28 65 -33 85 -9 40 48 -10
111 -68 88z"/>
<path d="M2718 2334 c-76 -41 -74 -159 2 -199 50 -26 97 -20 136 19 28 28 34
41 34 78 0 50 -18 82 -60 103 -36 19 -77 19 -112 -1z"/>
<path d="M10733 2310 c-23 -10 -43 -39 -43 -65 0 -23 45 -65 70 -65 26 0 70
43 70 68 0 44 -55 79 -97 62z"/>
<path d="M7760 2228 c-27 -29 -25 -64 5 -93 45 -46 118 -19 118 43 0 66 -78
98 -123 50z"/>
<path d="M12160 2228 c-67 -46 -93 -109 -77 -186 27 -136 226 -172 303 -54 38
58 36 149 -5 199 -53 64 -158 84 -221 41z"/>
<path d="M6270 2220 c-30 -30 -27 -83 6 -109 30 -24 43 -26 77 -10 71 32 47
139 -30 139 -20 0 -41 -8 -53 -20z"/>
<path d="M9525 2212 c-409 -139 -530 -657 -225 -962 230 -230 594 -228 825 4
114 115 165 243 165 413 0 167 -63 309 -188 425 -111 102 -234 148 -397 148
-83 0 -114 -5 -180 -28z"/>
<path d="M12510 2194 c-45 -38 -63 -79 -57 -130 15 -141 194 -182 267 -61 24
39 26 107 5 148 -37 71 -154 94 -215 43z"/>
<path d="M5930 2183 c-136 -70 -87 -283 65 -283 118 0 195 138 128 229 -49 65
-129 87 -193 54z"/>
<path d="M10455 2162 c-99 -47 -132 -147 -82 -242 63 -119 241 -117 304 3 25
47 22 125 -5 169 -46 74 -142 105 -217 70z"/>
<path d="M8094 2136 c-54 -46 -30 -127 43 -142 27 -5 37 -1 63 24 32 32 37 56
19 95 -22 49 -83 60 -125 23z"/>
<path d="M5704 2085 c-33 -51 13 -107 71 -85 55 21 35 110 -25 110 -20 0 -35
-8 -46 -25z"/>
<path d="M8435 2080 c-42 -46 -10 -120 52 -120 42 0 73 30 73 70 0 62 -84 95
-125 50z"/>
<path d="M2750 2060 c-24 -45 21 -92 66 -71 27 12 33 58 12 79 -20 20 -66 15
-78 -8z"/>
<path d="M7659 2057 c-99 -67 -114 -191 -34 -272 78 -77 200 -65 268 27 32 43
34 132 5 183 -47 80 -166 111 -239 62z"/>
<path d="M3892 2027 c-48 -15 -117 -80 -143 -134 -45 -93 -23 -217 51 -291 54
-55 106 -76 185 -76 61 0 78 4 125 30 100 57 153 170 130 280 -18 85 -89 166
-169 193 -41 13 -134 13 -179 -2z"/>
<path d="M8761 1994 c-25 -32 -26 -52 -5 -82 10 -15 25 -22 48 -22 64 0 94 55
56 103 -29 36 -71 36 -99 1z"/>
<path d="M3013 1996 c-139 -45 -236 -158 -263 -304 -29 -164 62 -337 218 -410
50 -24 69 -27 162 -27 95 0 111 3 162 28 79 39 143 104 181 185 29 61 32 76
32 162 0 85 -3 102 -31 160 -38 80 -106 150 -182 186 -47 23 -73 28 -147 31
-57 2 -105 -2 -132 -11z"/>
<path d="M8622 1978 c-20 -20 -14 -66 9 -79 44 -23 93 26 69 71 -12 23 -58 28
-78 8z"/>
<path d="M8175 1958 c-44 -24 -59 -74 -32 -109 48 -63 137 -36 137 42 0 59
-55 95 -105 67z"/>
<path d="M5703 1940 c-53 -32 -61 -113 -17 -161 37 -41 127 -32 159 15 20 28
19 96 -3 122 -38 47 -88 56 -139 24z"/>
<path d="M6239 1930 c-135 -21 -233 -72 -336 -175 -113 -115 -166 -246 -166
-410 1 -253 163 -477 405 -556 61 -20 92 -24 188 -23 98 1 125 4 182 26 149
56 261 152 330 284 52 99 71 187 65 299 -7 117 -36 206 -98 300 -124 185 -353
288 -570 255z"/>
<path d="M5542 1904 c-30 -21 -29 -59 3 -80 23 -15 27 -15 50 0 32 21 33 59 3
80 -12 9 -25 16 -28 16 -3 0 -16 -7 -28 -16z"/>
<path d="M8437 1889 c-18 -25 -11 -56 15 -70 45 -24 91 24 63 67 -19 30 -59
32 -78 3z"/>
<path d="M10706 1894 c-25 -24 -20 -71 8 -90 36 -23 80 -1 84 42 5 55 -55 86
-92 48z"/>
<path d="M8872 1858 c-22 -11 -39 -49 -33 -78 9 -48 82 -68 114 -32 26 29 22
77 -9 101 -30 23 -39 24 -72 9z"/>
<path d="M12375 1848 c-162 -57 -189 -272 -48 -372 123 -86 307 -4 321 144 7
74 -5 117 -46 162 -62 69 -147 94 -227 66z"/>
<path d="M7964 1830 c-50 -20 -70 -96 -38 -145 22 -34 77 -50 115 -35 40 17
59 47 59 93 0 71 -68 115 -136 87z"/>
<path d="M10526 1769 c-34 -40 -33 -74 3 -110 33 -32 58 -36 100 -14 75 38 43
155 -43 155 -26 0 -40 -7 -60 -31z"/>
<path d="M8413 1769 c-272 -46 -472 -286 -473 -569 0 -151 55 -285 165 -396
120 -122 270 -181 435 -171 245 15 437 161 516 394 35 102 37 243 5 343 -88
276 -364 446 -648 399z"/>
<path d="M9004 1755 c-15 -23 -15 -27 0 -50 10 -15 26 -25 41 -25 15 0 31 10
41 25 15 23 15 27 0 50 -10 15 -26 25 -41 25 -15 0 -31 -10 -41 -25z"/>
<path d="M11843 1719 c-43 -13 -73 -57 -73 -109 0 -34 6 -48 34 -76 28 -28 42
-34 76 -34 34 0 48 6 76 34 29 29 34 41 34 79 0 36 -6 51 -29 76 -16 17 -36
31 -44 31 -9 0 -21 2 -29 4 -7 2 -27 0 -45 -5z"/>
<path d="M10840 1695 c-58 -18 -113 -64 -148 -123 -36 -63 -39 -174 -5 -238
42 -79 147 -144 233 -144 133 0 260 127 260 260 0 104 -82 215 -181 244 -63
19 -99 19 -159 1z"/>
<path d="M5585 1686 c-68 -30 -93 -104 -56 -164 51 -81 175 -64 202 28 10 34
10 46 -4 75 -28 58 -89 85 -142 61z"/>
<path d="M7161 1674 c-60 -50 -30 -148 50 -160 70 -12 128 70 95 135 -30 57
-94 68 -145 25z"/>
<path d="M7734 1665 c-62 -32 -87 -129 -46 -184 49 -69 139 -76 199 -16 29 29
33 40 33 84 0 44 -5 56 -33 87 -39 43 -102 55 -153 29z"/>
<path d="M7395 1584 c-96 -50 -131 -155 -84 -251 22 -46 77 -85 136 -98 81
-16 180 49 203 135 14 52 2 114 -30 161 -43 60 -159 87 -225 53z"/>
<path d="M2531 1534 c-31 -40 -28 -87 10 -118 17 -14 42 -26 56 -26 36 0 83
51 83 90 0 73 -104 111 -149 54z"/>
<path d="M4144 1531 c-53 -32 -74 -68 -74 -125 0 -87 57 -146 141 -146 87 0
154 72 146 157 -11 104 -127 166 -213 114z"/>
<path d="M10360 1528 c-57 -39 -75 -72 -75 -138 0 -66 18 -99 75 -137 46 -32
124 -32 171 0 37 24 79 97 79 137 0 40 -42 113 -79 137 -47 32 -125 32 -171 1z"/>
<path d="M11621 1504 c-12 -15 -21 -35 -21 -46 0 -24 44 -68 68 -68 33 0 72
38 72 71 0 65 -80 93 -119 43z"/>
<path d="M3617 1496 c-224 -62 -252 -375 -42 -472 180 -84 382 57 362 252 -16
157 -169 262 -320 220z"/>
<path d="M11942 1476 c-193 -47 -350 -196 -418 -396 -28 -83 -26 -253 4 -340
61 -177 183 -303 357 -370 82 -31 235 -39 325 -16 206 52 371 214 425 416 19
71 19 219 0 290 -54 202 -223 367 -426 415 -77 18 -194 18 -267 1z"/>
<path d="M945 1413 c-295 -71 -484 -322 -462 -614 11 -139 69 -263 173 -365
224 -220 586 -216 809 10 174 177 214 437 102 666 -65 134 -217 254 -372 295
-55 14 -204 19 -250 8z"/>
<path d="M1499 1391 c-37 -38 -39 -82 -4 -116 56 -57 145 -21 145 57 0 82 -83
116 -141 59z"/>
<path d="M11295 1400 c-46 -10 -72 -27 -100 -64 -85 -112 -6 -268 135 -268 58
0 101 21 137 69 24 31 28 46 28 98 0 52 -4 67 -28 98 -43 57 -108 82 -172 67z"/>
<path d="M2368 1381 c-133 -27 -231 -177 -198 -303 24 -90 82 -157 163 -187
48 -18 146 -13 193 10 49 23 110 86 130 135 20 47 17 150 -5 199 -47 104 -171
168 -283 146z"/>
<path d="M5294 1316 c-27 -13 -66 -42 -87 -66 -150 -176 -29 -440 203 -440
290 0 371 391 106 511 -60 27 -157 25 -222 -5z"/>
<path d="M7016 1319 c-32 -25 -37 -86 -8 -112 30 -27 87 -22 111 9 24 30 26
43 10 77 -11 24 -47 47 -73 47 -7 0 -25 -9 -40 -21z"/>
<path d="M1914 1226 c-30 -30 -34 -40 -34 -84 0 -60 31 -104 85 -122 90 -30
180 61 154 154 -15 54 -60 86 -121 86 -44 0 -54 -4 -84 -34z"/>
<path d="M3194 1210 c-64 -26 -84 -115 -38 -169 51 -61 144 -49 179 25 42 90
-47 182 -141 144z"/>
<path d="M7215 1195 c-180 -39 -333 -163 -410 -330 -41 -87 -55 -154 -55 -253
0 -437 461 -721 855 -528 84 42 179 125 231 203 21 31 51 95 67 142 57 166 33
362 -63 508 -135 206 -388 310 -625 258z"/>
<path d="M189 1140 c-64 -19 -120 -86 -134 -161 -22 -119 103 -245 223 -225
156 25 225 208 124 328 -48 57 -138 81 -213 58z"/>
<path d="M9130 1130 c-32 -32 -25 -66 18 -89 43 -23 94 28 71 72 -23 42 -57
49 -89 17z"/>
<path d="M10522 1130 c-201 -54 -354 -195 -423 -390 -20 -55 -23 -84 -23 -190
0 -109 4 -134 26 -192 53 -141 150 -257 271 -327 l54 -31 239 0 239 0 64 38
c118 69 215 185 263 318 30 82 37 253 13 344 -50 192 -197 351 -385 416 -103
36 -237 42 -338 14z"/>
<path d="M1735 1112 c-78 -26 -107 -101 -65 -170 46 -76 156 -68 195 15 16 33
16 41 4 77 -21 59 -83 95 -134 78z"/>
<path d="M4193 1110 c-228 -41 -419 -223 -474 -450 -7 -30 -13 -95 -12 -145 2
-197 104 -380 270 -485 l47 -30 271 0 271 0 46 29 c165 105 269 291 271 486 1
50 -5 115 -12 145 -48 199 -207 371 -400 430 -75 24 -205 33 -278 20z"/>
<path d="M9961 1082 c-37 -20 -71 -73 -71 -110 0 -36 25 -87 55 -110 21 -16
41 -22 81 -22 46 0 57 4 87 33 48 44 56 92 28 151 -35 71 -110 95 -180 58z"/>
<path d="M9361 1059 c-61 -61 -33 -167 50 -189 85 -23 165 57 140 140 -16 54
-52 80 -112 80 -40 0 -52 -5 -78 -31z"/>
<path d="M4997 1030 c-34 -27 -37 -80 -7 -110 30 -30 83 -27 109 6 26 33 27
65 4 93 -27 32 -73 37 -106 11z"/>
<path d="M11170 1020 c-11 -11 -20 -29 -20 -40 0 -27 35 -60 63 -60 50 0 76
70 39 103 -25 23 -58 21 -82 -3z"/>
<path d="M2955 984 c-11 -2 -40 -10 -65 -16 -139 -34 -297 -159 -365 -289 -48
-93 -65 -149 -71 -249 -10 -136 21 -252 96 -369 l40 -61 459 0 460 0 29 43
c71 103 112 231 112 347 0 85 -30 203 -72 283 -42 80 -165 205 -238 242 -100
51 -160 66 -265 70 -55 2 -109 2 -120 -1z"/>
<path d="M5722 940 c-18 -11 -40 -37 -48 -57 -44 -103 65 -200 166 -148 82 42
78 170 -6 210 -43 20 -73 19 -112 -5z"/>
<path d="M1922 923 c-92 -60 -118 -187 -56 -275 61 -87 183 -111 266 -52 85
59 111 159 67 252 -48 98 -184 135 -277 75z"/>
<path d="M9702 898 c-19 -19 -15 -66 7 -78 11 -5 24 -10 30 -10 16 0 51 38 51
54 0 37 -61 61 -88 34z"/>
<path d="M3611 874 c-34 -44 -26 -86 21 -110 38 -20 81 -4 98 35 31 76 -69
139 -119 75z"/>
<path d="M11289 861 c-49 -49 -35 -126 28 -156 85 -41 169 43 128 128 -30 63
-107 77 -156 28z"/>
<path d="M9204 782 c-196 -92 -130 -387 86 -386 197 2 274 254 112 368 -55 39
-137 46 -198 18z"/>
<path d="M9775 786 c-56 -25 -105 -101 -105 -163 1 -45 35 -108 76 -139 33
-25 46 -29 104 -29 58 0 71 4 104 29 42 32 76 95 76 141 0 64 -54 142 -113
164 -38 15 -105 13 -142 -3z"/>
<path d="M6012 740 c-84 -51 -79 -185 9 -232 93 -50 199 13 199 117 0 106
-116 171 -208 115z"/>
<path d="M72 738 c-20 -20 -14 -56 13 -74 23 -15 27 -15 50 0 27 18 33 54 13
74 -15 15 -61 15 -76 0z"/>
<path d="M6374 656 c-38 -38 -45 -85 -20 -134 26 -50 102 -71 155 -43 72 39
72 160 -1 197 -49 25 -96 18 -134 -20z"/>
<path d="M5148 627 c-103 -39 -182 -110 -227 -206 -23 -50 -26 -68 -26 -161 1
-115 16 -164 69 -228 l28 -32 279 0 279 0 30 42 c17 23 40 73 52 111 54 180
-30 370 -200 454 -48 24 -71 28 -152 31 -61 1 -108 -3 -132 -11z"/>
<path d="M8720 631 c-140 -46 -215 -180 -176 -313 63 -215 361 -245 463 -45
30 59 35 138 14 201 -17 49 -73 112 -125 138 -43 22 -136 32 -176 19z"/>
<path d="M1658 580 c-24 -25 -29 -36 -23 -58 10 -43 34 -62 75 -62 72 0 101
80 46 127 -36 31 -61 29 -98 -7z"/>
<path d="M64 526 c-66 -29 -84 -101 -39 -154 30 -35 69 -45 111 -27 86 36 85
145 -2 181 -39 16 -32 16 -70 0z"/>
<path d="M1920 515 c-74 -21 -127 -54 -182 -113 -94 -100 -126 -217 -97 -352
l11 -50 364 0 364 0 11 26 c32 85 16 219 -37 309 -38 66 -125 140 -192 165
-75 28 -172 34 -242 15z"/>
<path d="M12692 484 c-22 -15 -29 -48 -14 -70 15 -24 50 -26 71 -5 26 26 26
46 1 71 -24 24 -29 24 -58 4z"/>
<path d="M5925 441 c-137 -33 -175 -218 -62 -302 48 -35 140 -39 187 -7 76 52
102 143 63 225 -29 62 -116 101 -188 84z"/>
<path d="M6510 441 c-95 -29 -153 -97 -166 -195 -9 -61 17 -133 64 -179 168
-163 433 -5 372 223 -28 106 -165 183 -270 151z"/>
<path d="M549 381 c-34 -35 -37 -68 -8 -105 29 -37 89 -37 118 0 35 45 24 96
-26 122 -34 18 -52 14 -84 -17z"/>
<path d="M8045 401 c-135 -35 -225 -158 -212 -290 3 -31 11 -68 18 -83 l12
-28 244 0 243 0 13 28 c6 15 12 63 12 107 -1 63 -5 89 -22 121 -26 48 -92 110
-138 130 -42 17 -131 25 -170 15z"/>
<path d="M9425 391 c-92 -26 -184 -80 -251 -147 -60 -60 -126 -162 -139 -217
l-7 -27 551 0 c327 0 551 4 551 9 0 23 -45 110 -85 167 -76 106 -200 189 -327
219 -84 20 -218 18 -293 -4z"/>
<path d="M12525 388 c-51 -19 -82 -46 -104 -91 -79 -164 96 -325 253 -233 87
51 111 167 53 254 -41 62 -135 95 -202 70z"/>
<path d="M11520 330 c-39 -39 -11 -110 43 -110 29 0 67 39 67 68 0 29 -34 62
-65 62 -14 0 -34 -9 -45 -20z"/>
<path d="M12143 299 c-18 -5 -48 -25 -68 -44 -59 -60 -68 -148 -21 -218 l22
-32 121 -3 121 -3 23 32 c23 33 36 110 25 153 -9 37 -56 87 -101 107 -44 20
-73 22 -122 8z"/>
<path d="M273 270 c-99 -20 -188 -94 -223 -186 -34 -91 -58 -84 281 -84 l302
0 -7 32 c-31 157 -197 269 -353 238z"/>
<path d="M697 179 c-15 -11 -32 -37 -38 -59 -10 -32 -9 -44 7 -77 l19 -38 76
-3 c73 -3 78 -1 98 24 34 43 29 98 -13 140 -29 29 -41 34 -79 34 -30 0 -53 -7
-70 -21z"/>
<path d="M11784 188 c-47 -22 -56 -86 -19 -123 52 -53 135 -18 135 57 0 60
-59 94 -116 66z"/>
<path d="M11415 178 c-32 -11 -92 -52 -113 -78 -14 -17 -52 -86 -52 -95 0 -3
110 -5 245 -5 163 0 245 3 245 10 0 21 -39 85 -67 112 -63 60 -177 84 -258 56z"/>
<path d="M3734 115 c-18 -18 -23 -31 -19 -48 8 -26 41 -57 62 -57 19 0 63 45
63 65 0 21 -44 65 -65 65 -9 0 -27 -11 -41 -25z"/>
<path d="M8542 123 c-37 -18 -66 -55 -76 -95 l-6 -28 146 0 146 0 -6 27 c-22
90 -121 137 -204 96z"/>
<path d="M6873 115 c-37 -16 -53 -42 -53 -84 l0 -31 95 0 c94 0 95 0 95 25 0
40 -21 73 -55 90 -39 18 -41 18 -82 0z"/>
<path d="M5952 65 c-34 -8 -86 -25 -115 -39 l-52 -24 290 0 290 0 -55 25
c-111 51 -237 64 -358 38z"/>
<path d="M7693 70 c-12 -5 -29 -23 -38 -39 l-16 -31 91 0 c58 0 90 4 90 11 0
6 -13 24 -29 40 -30 29 -58 35 -98 19z"/>
<path d="M1040 30 c-131 -21 -107 -29 85 -28 169 0 186 1 150 13 -57 18 -170
25 -235 15z"/>
<path d="M2455 10 c-4 -6 12 -10 40 -10 28 0 44 4 40 10 -8 13 -72 13 -80 0z"/>
<path d="M10288 3 c12 -2 30 -2 40 0 9 3 -1 5 -23 4 -22 0 -30 -2 -17 -4z"/>
</g>
</svg>
